<?xml version="1.0" encoding="UTF-8" standalone="no"?>
<!DOCTYPE svg PUBLIC "-//W3C//DTD SVG 1.1//EN" "http://www.w3.org/Graphics/SVG/1.1/DTD/svg11.dtd">
<svg width="100%" height="100%" viewBox="0 0 360 300" version="1.1" xmlns="http://www.w3.org/2000/svg" xmlns:xlink="http://www.w3.org/1999/xlink" xml:space="preserve" xmlns:serif="http://www.serif.com/" style="fill-rule:evenodd;clip-rule:evenodd;stroke-linejoin:round;stroke-miterlimit:2;">
    <g transform="matrix(1.64147,0,0,1.64147,-116.033,-145.841)">
        <rect x="70.7" y="90.3" width="219.3" height="179.9" style="fill:rgb(65,64,66);"/>
    </g>
    <g>
        <g transform="matrix(1.64147,0,0,1.64147,-116.033,-145.841)">
            <path d="M118.9,242.1C119,243.1 119.2,243.7 119.4,243.8C119.4,244.1 119.2,244.3 118.7,244.5C117.2,245.2 115.4,245.8 113.2,246.2C111,246.6 109.1,246.9 107.3,246.9C102.9,246.9 99.5,245.5 97.1,242.7C94.6,240 93.4,236.4 93.4,232C93.5,226.7 95.3,222.7 98.8,219.9C102.3,217.1 106.4,215.7 111.2,215.6C114.1,215.6 116.8,216.2 119.3,217.4C119,219.1 118.8,220.2 118.7,220.6C118.6,221 118.4,221.2 118.3,221.2C118.2,221.2 118,221.2 117.9,221.1C117.8,221 117.7,220.8 117.7,220.4C117.7,219.7 117.1,219.1 115.9,218.4C114.7,217.7 112.9,217.3 110.6,217.3C109.7,217.3 108.5,217.4 107.1,217.7C105.7,218 104.2,218.7 102.7,219.7C101.3,220.7 100.1,222.1 99.1,224C98,225.9 97.5,228.5 97.5,231.6C97.5,235.4 98.5,238.6 100.5,241.2C102.5,243.9 105.4,245.2 109.2,245.3C111.3,245.3 113.3,244.9 115.1,244L115.1,240.8C115.1,238 115,236.1 114.9,235.2C114.8,234.7 114.7,234.3 114.6,234.1C114.4,233.9 114.2,233.9 113.9,233.9L110.7,233.9L110.7,232.5L121.7,232.5L121.7,233.9L119.7,233.9C119.2,233.9 118.9,234.1 118.9,234.5L118.9,242.1Z" style="fill:white;fill-rule:nonzero;"/>
            <path d="M138.6,224.5C138.6,222.1 138.5,220.4 138.4,219.4C138.3,218.4 137.9,217.9 137.3,217.9L134.6,217.9L134.6,216.5L147.2,216.5C148.2,216.5 149.3,216.6 150.4,216.9C151.4,217.2 152.4,217.6 153.3,218.3C154.2,218.9 155,219.7 155.5,220.7C156,221.8 156.3,223 156.3,224.5C156.3,226.6 155.6,228.3 154.3,229.5C153,230.8 151.3,231.6 149.3,232C152.9,237.4 155.4,240.9 156.8,242.5C157.5,243.3 158.1,243.9 158.5,244.2C158.9,244.5 159.3,244.7 159.6,244.7L160.7,244.7L160.7,246.1L155.5,246.1C155.3,246.1 155,246 154.7,245.8C154.4,245.6 154,245.2 153.4,244.3C152.3,242.9 149.7,239 145.7,232.6L142.4,232.6L142.4,238C142.4,240.3 142.5,242 142.6,243C142.7,244.1 143.1,244.6 143.6,244.5L146.2,244.5L146.2,245.9L135.8,245.9L135.8,244.5L137.9,244.5C138.4,244.5 138.6,244.3 138.6,243.8L138.6,224.5ZM144.6,231.4C146.7,231.4 148.5,231 150,230.1C151.6,229.2 152.4,227.6 152.5,225.4C152.5,223.2 151.8,221.4 150.5,220.2C149.2,219 147.6,218.3 145.7,218.3L142.8,218.3C142.5,218.4 142.4,218.6 142.4,218.9L142.4,231.4L144.6,231.4Z" style="fill:white;fill-rule:nonzero;"/>
        </g>
        <g transform="matrix(1.64147,0,0,1.64147,-116.033,-145.841)">
            <g>
                <path d="M101.3,133.3C100.8,134.7 100.2,136.3 99.6,138C99,139.7 98.7,141 98.7,141.8C98.7,142.2 98.8,142.6 99.1,142.7C99.3,142.9 99.5,143 99.9,143L102.7,143L102.7,144.4L93.6,144.4L93.6,143L94.5,143C94.9,143 95.2,142.9 95.5,142.8C95.8,142.7 96,142.5 96.1,142.3L107.5,114.4C108.8,114 109.7,113.8 110.2,113.8C110.5,113.8 110.6,114 110.6,114.3C110.6,114.5 110.5,114.7 110.2,114.9C109.9,115.1 109.8,115.3 109.8,115.8C109.8,116 109.9,116.5 110.1,117.1C110.3,117.8 110.5,118.5 110.8,119.5C111.1,120.4 111.4,121.4 111.8,122.5C112.2,123.6 112.5,124.8 113,126.1C114.9,131.5 116.4,136 117.7,139.6C118.2,141 118.7,141.9 119,142.4C119.4,142.9 119.9,143.2 120.4,143.2L121.7,143.2L121.7,144.6L111.5,144.6L111.5,143L114,143C114.4,143 114.6,142.8 114.7,142.5C114.7,142.3 114.4,141.4 113.8,139.8C113.3,138.3 112.5,136.1 111.5,133.2L101.3,133.2L101.3,133.3ZM106.9,119.2L101.9,131.6L110.9,131.6L106.9,119.2Z" style="fill:white;fill-rule:nonzero;"/>
                <path d="M144.1,136.4C144.1,138.7 144.2,140.4 144.3,141.4C144.4,142.5 144.8,143 145.3,142.9L147.8,142.9L147.8,144.3L137.4,144.3L137.4,142.9L139.5,142.9C139.9,142.9 140.2,142.7 140.2,142.1L140.2,131.5C135.6,123 132.8,118.1 131.7,116.7C131.3,116.2 130.8,116 130.2,116L128.6,116L128.6,114.6L138.7,114.6L138.7,116L136.6,116C136.1,116 135.9,116.1 135.9,116.2C135.9,116.3 136.2,116.7 136.7,117.6C137.1,118.4 137.7,119.5 138.4,120.8C140,123.5 141.6,126.4 143.4,129.6C146.2,124.4 148,121 148.8,119.4C149.5,117.8 149.9,116.9 149.8,116.7C149.8,116.3 149.5,116.1 148.9,116.1L146.3,116.1L146.3,114.7L154.5,114.7L154.5,116.1L153,116.1C152.7,116.1 152.4,116.3 152.2,116.5C152,116.8 151.9,117.1 151.7,117.5L144.1,131.5L144.1,136.4Z" style="fill:white;fill-rule:nonzero;"/>
                <path d="M171.7,122.7C171.7,120.3 171.6,118.6 171.5,117.6C171.3,116.6 171,116.1 170.4,116.1L167.8,116.1L167.8,114.7L190.4,114.7C190.2,116.7 190.1,117.9 189.9,118.3C189.8,118.8 189.6,119 189.4,119C189.1,119 188.9,118.7 188.8,118.2C188.8,118 188.8,117.9 188.6,117.7C188.4,117.5 188,117.3 187.5,117.1C187,116.9 186.2,116.7 185.1,116.6C184,116.5 182.6,116.5 180.8,116.5L176.4,116.5C175.8,116.5 175.5,116.8 175.5,117.3L175.5,127.5L180.7,127.5C181.9,127.5 182.9,127.5 183.7,127.4C184.5,127.4 185.1,127.3 185.5,127.2C186.3,127 186.7,126.6 186.7,125.9L186.7,124L187.9,124L187.9,131.9L186.7,131.9L186.7,130.3C186.7,130 186.7,129.7 186.6,129.5C186.5,129.3 186.2,129.2 185.8,129.1C185.1,129 183.6,129 181.1,129L175.4,129L175.4,136.9C175.4,139.7 175.5,141.3 175.8,141.9C175.9,142.2 176.1,142.4 176.4,142.5C176.6,142.6 176.9,142.6 177.2,142.6L180.2,142.6C184,142.6 186.5,142.3 187.9,141.8C188.6,141.6 189.2,141.3 189.6,141C190,140.7 190.2,140.4 190.4,140.1C190.5,139.8 190.7,139.6 190.9,139.6C191.1,139.6 191.2,139.8 191.3,140.1C191.3,140.3 191.2,140.8 191,141.6C190.8,142.4 190.5,143.3 190.2,144.2L169,144.2L169,142.8L171.1,142.8C171.6,142.8 171.8,142.6 171.8,142.1L171.8,122.7L171.7,122.7Z" style="fill:white;fill-rule:nonzero;"/>
                <path d="M210,122.7C210,120.3 209.9,118.6 209.8,117.6C209.7,116.6 209.3,116.1 208.7,116.1L206,116.1L206,114.7L218.6,114.7C219.6,114.7 220.7,114.8 221.8,115.1C222.8,115.4 223.8,115.8 224.7,116.5C225.6,117.1 226.4,117.9 226.9,118.9C227.4,120 227.7,121.2 227.7,122.7C227.7,124.8 227,126.5 225.7,127.7C224.4,129 222.7,129.8 220.7,130.2C224.3,135.6 226.8,139.1 228.2,140.7C228.9,141.5 229.5,142.1 229.9,142.4C230.3,142.7 230.7,142.9 231,142.9L232.1,142.9L232.1,144.3L226.9,144.3C226.7,144.3 226.4,144.2 226.1,144C225.8,143.8 225.4,143.4 224.8,142.5C223.7,141.1 221.1,137.2 217.1,130.8L213.8,130.8L213.8,136.2C213.8,138.5 213.9,140.2 214,141.2C214.1,142.3 214.5,142.8 215,142.7L217.6,142.7L217.6,144.1L207.2,144.1L207.2,142.7L209.3,142.7C209.8,142.7 210,142.5 210,142L210,122.7ZM216.1,129.6C218.2,129.6 220,129.2 221.5,128.3C223.1,127.4 223.9,125.8 224,123.6C224,121.4 223.3,119.6 222,118.4C220.7,117.2 219.1,116.5 217.2,116.5L214.3,116.5C214,116.6 213.9,116.8 213.9,117.1L213.9,129.6L216.1,129.6Z" style="fill:white;fill-rule:nonzero;"/>
                <path d="M254.9,115.5C253.4,115.5 252,116 250.8,116.9C250.2,117.4 249.7,117.9 249.4,118.6C249,119.3 248.8,120 248.8,120.9C248.8,121.8 249,122.6 249.4,123.2C249.8,123.9 250.2,124.4 250.8,124.9C251.4,125.4 252.1,125.8 252.8,126.1C253.5,126.4 254.2,126.8 254.9,127C257.8,128 259.9,129.2 261.3,130.5C262.7,131.8 263.4,133.7 263.4,136.1C263.4,138.2 262.5,140.2 260.8,142.1C259,144.1 256.3,145.1 252.5,145.2C250.1,145.2 247.7,144.7 245.5,143.9C245,141.2 244.8,139.8 244.8,139.6C244.8,139.3 245,139.1 245.3,139.1C245.6,139.1 245.7,139.2 245.8,139.3C245.9,139.5 246,139.7 246,140C246.2,140.6 246.6,141.1 247.1,141.6C247.6,142.1 248.2,142.4 248.9,142.7C250.4,143.3 251.8,143.5 252.9,143.5C254.8,143.5 256.5,143 258,142C259.5,141 260.2,139.5 260.2,137.4C260.2,135.6 259.6,134.2 258.4,133.2C257.2,132.2 255.4,131.3 253.2,130.5C252.7,130.3 252,130 251.2,129.7C250.4,129.3 249.5,128.8 248.7,128.3C247.9,127.6 247.2,126.8 246.6,125.9C246,124.9 245.7,123.8 245.7,122.4C245.8,119.6 246.8,117.5 249,116C251.1,114.6 253.3,113.9 255.8,113.9C257.7,113.9 259.4,114.2 260.8,114.8C260.9,115.9 260.9,117 260.9,118.2C260.9,118.6 260.7,118.8 260.4,118.8C260.2,118.8 260,118.7 260,118.6C259.9,118.5 259.8,118.3 259.8,118.2C259.8,117.9 259.7,117.7 259.6,117.5C259.5,117.3 259.3,117.1 259.1,117C258.7,116.7 258.2,116.4 257.6,116.3C256.8,115.7 255.8,115.5 254.9,115.5Z" style="fill:white;fill-rule:nonzero;"/>
            </g>
            <g>
                <path d="M103.4,166.9C101.9,166.9 100.5,167.4 99.3,168.3C98.7,168.8 98.2,169.3 97.9,170C97.5,170.7 97.3,171.4 97.3,172.3C97.3,173.2 97.5,174 97.9,174.6C98.3,175.3 98.7,175.8 99.3,176.3C99.9,176.8 100.6,177.2 101.3,177.5C102,177.8 102.7,178.2 103.4,178.4C106.3,179.4 108.4,180.6 109.8,181.9C111.2,183.2 111.9,185.1 111.9,187.5C111.9,189.6 111,191.6 109.3,193.5C107.5,195.5 104.8,196.5 101,196.6C98.6,196.6 96.2,196.1 94,195.3C93.5,192.6 93.3,191.2 93.3,191C93.3,190.7 93.5,190.5 93.8,190.5C94.1,190.5 94.2,190.6 94.3,190.7C94.4,190.9 94.5,191.1 94.5,191.4C94.7,192 95.1,192.5 95.6,193C96.1,193.5 96.7,193.8 97.4,194.1C98.9,194.7 100.3,194.9 101.4,194.9C103.3,194.9 105,194.4 106.5,193.4C108,192.4 108.7,190.9 108.7,188.8C108.7,187 108.1,185.6 106.9,184.6C105.7,183.6 103.9,182.7 101.7,181.9C101.2,181.7 100.5,181.4 99.7,181.1C98.9,180.7 98,180.2 97.2,179.7C96.4,179 95.7,178.2 95.1,177.3C94.5,176.3 94.2,175.2 94.2,173.8C94.3,171 95.4,168.9 97.5,167.4C99.6,166 101.8,165.3 104.3,165.3C106.2,165.3 107.9,165.6 109.3,166.2C109.4,167.3 109.4,168.4 109.4,169.6C109.4,170 109.2,170.2 108.9,170.2C108.7,170.2 108.5,170.1 108.5,170C108.4,169.9 108.3,169.7 108.3,169.6C108.3,169.3 108.2,169.1 108.1,168.9C108,168.7 107.8,168.5 107.6,168.4C107.2,168.1 106.7,167.8 106.1,167.7C105.3,167 104.2,166.9 103.4,166.9Z" style="fill:white;fill-rule:nonzero;"/>
                <path d="M133.7,184.6C133.2,186 132.6,187.6 132,189.3C131.4,191 131.1,192.3 131.1,193.1C131.1,193.5 131.2,193.9 131.5,194C131.7,194.2 131.9,194.3 132.3,194.3L135.1,194.3L135.1,195.7L126,195.7L126,194.3L126.9,194.3C127.3,194.3 127.6,194.2 127.9,194.1C128.2,194 128.4,193.8 128.5,193.6L139.9,165.7C141.2,165.3 142.1,165.1 142.6,165.1C142.9,165.1 143,165.3 143,165.6C143,165.8 142.9,166 142.6,166.2C142.3,166.4 142.2,166.6 142.2,167.1C142.2,167.3 142.3,167.8 142.5,168.4C142.7,169.1 142.9,169.8 143.2,170.8C143.5,171.7 143.8,172.7 144.2,173.8C144.6,174.9 144.9,176.1 145.4,177.4C147.3,182.8 148.8,187.3 150.1,190.9C150.6,192.3 151.1,193.2 151.4,193.7C151.8,194.2 152.3,194.5 152.8,194.5L154.1,194.5L154.1,195.9L143.9,195.9L143.9,194.5L146.4,194.5C146.8,194.5 147,194.3 147.1,194C147.1,193.8 146.8,192.9 146.2,191.3C145.7,189.8 144.9,187.6 143.9,184.7L133.7,184.7L133.7,184.6ZM139.3,170.5L134.3,182.9L143.3,182.9L139.3,170.5Z" style="fill:white;fill-rule:nonzero;"/>
                <path d="M176.7,187.7C176.7,190.1 176.8,191.7 176.9,192.7C177,193.8 177.4,194.3 177.9,194.2L180.5,194.2L180.5,195.6L170.1,195.6L170.1,194.2L172.2,194.2C172.7,194.2 172.9,194 172.9,193.4L172.9,174C172.9,171.6 172.8,169.9 172.7,168.9C172.6,167.9 172.2,167.4 171.6,167.4L169,167.4L169,166L179.4,166L179.4,167.4L177.4,167.4C176.9,167.4 176.7,167.7 176.7,168.2L176.7,187.7Z" style="fill:white;fill-rule:nonzero;"/>
            </g>
            <g>
                <path d="M219.4,189.2L219.5,172.4C219.5,171.2 219.4,170.1 219.3,169.1C219.1,168.1 218.7,167.5 218,167.5L215.6,167.5L215.6,166.1L223.8,166.1L223.8,167.5L222.1,167.5C221.4,167.5 221.1,167.8 221.1,168.4L221.1,195.4C221.1,195.9 221,196.1 220.7,196.1C220.6,196.1 220.4,195.9 220.1,195.6L219.5,194.9L200,170.6L200,189.4C200,190.5 200.1,191.6 200.2,192.6C200.3,193.7 200.8,194.3 201.4,194.3L203.8,194.3L203.8,195.7L195.6,195.7L195.6,194.3L197.3,194.3C198,194.3 198.3,194 198.3,193.4L198.3,172.9C198.3,171 198.1,169.6 197.8,168.7C197.5,167.9 196.8,167.5 195.7,167.5L194.3,167.5L194.3,166.1L200.8,166.1L219.4,189.2Z" style="fill:white;fill-rule:nonzero;"/>
                <path d="M254.6,187.8C254.6,190.1 254.7,191.8 254.8,192.8C254.9,193.9 255.3,194.4 255.9,194.3L259.5,194.3L259.5,195.7L246.5,195.7L246.5,194.3L250.1,194.3C250.6,194.3 250.8,194.1 250.8,193.5L250.8,167.7L249.6,167.7C246.9,167.7 244.8,167.9 243.4,168.4C242,168.8 241.1,169.4 240.9,170.1C240.9,170.2 240.8,170.4 240.7,170.5C240.6,170.7 240.4,170.7 240.3,170.7C240,170.7 239.8,170.5 239.8,170.2C239.8,170 239.9,169.5 240.2,168.6C240.4,167.8 240.7,166.9 241.1,165.9L264.3,165.9C264.6,166.9 264.9,167.8 265.2,168.6C265.5,169.5 265.6,170 265.6,170.2C265.6,170.5 265.4,170.7 265.1,170.7C264.9,170.7 264.8,170.6 264.7,170.5C264.6,170.3 264.5,170.2 264.5,170.1C264.3,169.4 263.5,168.8 262.1,168.4C260.7,168 258.6,167.7 255.8,167.7L254.6,167.7L254.6,187.8Z" style="fill:white;fill-rule:nonzero;"/>
            </g>
        </g>
        <g transform="matrix(1.64147,0,0,1.64147,-116.033,-145.841)">
            <path d="M184.5,247C180,247 176.5,245.6 174.1,242.8C171.6,240.1 170.4,236.4 170.4,231.8C170.4,227.2 171.8,223.4 174.6,220.4C177.3,217.3 180.9,215.8 185.4,215.7C190,215.7 193.5,217.1 195.9,219.9C198.3,222.6 199.5,226.3 199.5,230.9C199.5,235.4 198.1,239.2 195.4,242.2C192.7,245.4 189.1,247 184.5,247ZM184.4,217.3C177.8,217.4 174.4,221.8 174.2,230.5C174.3,235.7 175.5,239.5 177.9,241.9C180.2,244.3 182.8,245.5 185.6,245.5C192.2,245.4 195.6,241 195.8,232.3C195.7,227.1 194.5,223.3 192.1,220.9C189.7,218.4 187.2,217.3 184.4,217.3Z" style="fill:white;fill-rule:nonzero;"/>
        </g>
        <g transform="matrix(1.64147,0,0,1.64147,-116.033,-145.841)">
            <path d="M222.5,217.5C221,217.5 219.6,218 218.4,218.9C217.8,219.4 217.3,219.9 217,220.6C216.6,221.3 216.4,222 216.4,222.9C216.4,223.8 216.6,224.6 217,225.2C217.4,225.9 217.8,226.4 218.4,226.9C219,227.4 219.7,227.8 220.4,228.1C221.1,228.4 221.8,228.8 222.5,229C225.4,230 227.5,231.2 228.9,232.5C230.3,233.8 231,235.7 231,238.1C231,240.2 230.1,242.2 228.4,244.1C226.6,246.1 223.9,247.1 220.1,247.2C217.7,247.2 215.3,246.7 213.1,245.9C212.6,243.2 212.4,241.8 212.4,241.6C212.4,241.3 212.6,241.1 212.9,241.1C213.2,241.1 213.3,241.2 213.4,241.3C213.5,241.5 213.6,241.7 213.6,242C213.8,242.6 214.2,243.1 214.7,243.6C215.2,244.1 215.8,244.4 216.5,244.7C218,245.3 219.4,245.5 220.5,245.5C222.4,245.5 224.1,245 225.6,244C227.1,243 227.8,241.5 227.8,239.4C227.8,237.6 227.2,236.2 226,235.2C224.8,234.2 223,233.3 220.8,232.5C220.3,232.3 219.6,232 218.8,231.7C218,231.3 217.1,230.8 216.3,230.3C215.5,229.6 214.8,228.8 214.2,227.9C213.6,226.9 213.3,225.8 213.3,224.4C213.4,221.6 214.5,219.5 216.6,218C218.7,216.6 220.9,215.9 223.4,215.9C225.3,215.9 227,216.2 228.4,216.8C228.5,217.9 228.5,219 228.5,220.2C228.5,220.6 228.3,220.8 228,220.8C227.8,220.8 227.6,220.7 227.6,220.6C227.5,220.5 227.4,220.3 227.4,220.2C227.4,219.9 227.3,219.7 227.2,219.5C227.1,219.3 226.9,219.1 226.7,219C226.3,218.7 225.8,218.4 225.2,218.3C224.4,217.6 223.4,217.5 222.5,217.5Z" style="fill:white;fill-rule:nonzero;"/>
        </g>
        <g transform="matrix(1.64147,0,0,1.64147,-116.033,-145.841)">
            <path d="M254.3,217.5C252.8,217.5 251.4,218 250.2,218.9C249.6,219.4 249.1,219.9 248.8,220.6C248.4,221.3 248.2,222 248.2,222.9C248.2,223.8 248.4,224.6 248.8,225.2C249.2,225.9 249.6,226.4 250.2,226.9C250.8,227.4 251.5,227.8 252.2,228.1C252.9,228.4 253.6,228.8 254.3,229C257.2,230 259.3,231.2 260.7,232.5C262.1,233.8 262.8,235.7 262.8,238.1C262.8,240.2 261.9,242.2 260.2,244.1C258.4,246.1 255.7,247.1 251.9,247.2C249.5,247.2 247.1,246.7 244.9,245.9C244.4,243.2 244.2,241.8 244.2,241.6C244.2,241.3 244.4,241.1 244.7,241.1C245,241.1 245.1,241.2 245.2,241.3C245.3,241.5 245.4,241.7 245.4,242C245.6,242.6 246,243.1 246.5,243.6C247,244.1 247.6,244.4 248.3,244.7C249.8,245.3 251.2,245.5 252.3,245.5C254.2,245.5 255.9,245 257.4,244C258.9,243 259.6,241.5 259.6,239.4C259.6,237.6 259,236.2 257.8,235.2C256.6,234.2 254.8,233.3 252.6,232.5C252.1,232.3 251.4,232 250.6,231.7C249.8,231.3 248.9,230.8 248.1,230.3C247.3,229.6 246.6,228.8 246,227.9C245.4,226.9 245.1,225.8 245.1,224.4C245.2,221.6 246.3,219.5 248.4,218C250.5,216.6 252.7,215.9 255.2,215.9C257.1,215.9 258.8,216.2 260.2,216.8C260.3,217.9 260.3,219 260.3,220.2C260.3,220.6 260.1,220.8 259.8,220.8C259.6,220.8 259.4,220.7 259.4,220.6C259.3,220.5 259.2,220.3 259.2,220.2C259.2,219.9 259.1,219.7 259,219.5C258.9,219.3 258.7,219.1 258.5,219C258.1,218.7 257.6,218.4 257,218.3C256.1,217.6 255.1,217.5 254.3,217.5Z" style="fill:white;fill-rule:nonzero;"/>
        </g>
    </g>
    <g>
        <g transform="matrix(1.64147,0,0,1.64147,-116.033,-145.841)">
            <path d="M97.2,155.2L264.2,155.2" style="fill:none;fill-rule:nonzero;"/>
            <rect x="97.2" y="154.7" width="167" height="1.1" style="fill:white;fill-rule:nonzero;"/>
        </g>
        <g transform="matrix(1.64147,0,0,1.64147,-116.033,-145.841)">
            <path d="M97.2,206.2L264.2,206.2" style="fill:none;fill-rule:nonzero;"/>
            <rect x="97.2" y="205.7" width="167" height="1.1" style="fill:white;fill-rule:nonzero;"/>
        </g>
    </g>
</svg>
