<?xml version="1.0" encoding="utf-8"?>
<!-- Generator: Adobe Illustrator 27.8.1, SVG Export Plug-In . SVG Version: 6.00 Build 0)  -->
<svg version="1.1" id="Layer_1" xmlns="http://www.w3.org/2000/svg" xmlns:xlink="http://www.w3.org/1999/xlink" x="0px" y="0px"
	 viewBox="0 0 360 360" style="enable-background:new 0 0 360 360;" xml:space="preserve">
<style type="text/css">
	.st0{fill:#414042;}
	.st1{fill:#FFFFFF;}
</style>
<rect x="70.7" y="90.3" class="st0" width="219.3" height="179.9"/>
<g>
	<g>
		<path class="st1" d="M118.9,242.1c0.1,1,0.3,1.6,0.5,1.7c0,0.3-0.2,0.5-0.7,0.7c-1.5,0.7-3.3,1.3-5.5,1.7
			c-2.2,0.4-4.1,0.7-5.9,0.7c-4.4,0-7.8-1.4-10.2-4.2c-2.5-2.7-3.7-6.3-3.7-10.7c0.1-5.3,1.9-9.3,5.4-12.1c3.5-2.8,7.6-4.2,12.4-4.3
			c2.9,0,5.6,0.6,8.1,1.8c-0.3,1.7-0.5,2.8-0.6,3.2c-0.1,0.4-0.3,0.6-0.4,0.6c-0.1,0-0.3,0-0.4-0.1c-0.1-0.1-0.2-0.3-0.2-0.7
			c0-0.7-0.6-1.3-1.8-2c-1.2-0.7-3-1.1-5.3-1.1c-0.9,0-2.1,0.1-3.5,0.4c-1.4,0.3-2.9,1-4.4,2c-1.4,1-2.6,2.4-3.6,4.3
			c-1.1,1.9-1.6,4.5-1.6,7.6c0,3.8,1,7,3,9.6c2,2.7,4.9,4,8.7,4.1c2.1,0,4.1-0.4,5.9-1.3v-3.2c0-2.8-0.1-4.7-0.2-5.6
			c-0.1-0.5-0.2-0.9-0.3-1.1c-0.2-0.2-0.4-0.2-0.7-0.2h-3.2v-1.4h11v1.4h-2c-0.5,0-0.8,0.2-0.8,0.6V242.1z"/>
		<path class="st1" d="M138.6,224.5c0-2.4-0.1-4.1-0.2-5.1c-0.1-1-0.5-1.5-1.1-1.5h-2.7v-1.4h12.6c1,0,2.1,0.1,3.2,0.4
			c1,0.3,2,0.7,2.9,1.4c0.9,0.6,1.7,1.4,2.2,2.4c0.5,1.1,0.8,2.3,0.8,3.8c0,2.1-0.7,3.8-2,5c-1.3,1.3-3,2.1-5,2.5
			c3.6,5.4,6.1,8.9,7.5,10.5c0.7,0.8,1.3,1.4,1.7,1.7c0.4,0.3,0.8,0.5,1.1,0.5h1.1v1.4h-5.2c-0.2,0-0.5-0.1-0.8-0.3
			c-0.3-0.2-0.7-0.6-1.3-1.5c-1.1-1.4-3.7-5.3-7.7-11.7h-3.3v5.4c0,2.3,0.1,4,0.2,5c0.1,1.1,0.5,1.6,1,1.5h2.6v1.4h-10.4v-1.4h2.1
			c0.5,0,0.7-0.2,0.7-0.7V224.5z M144.6,231.4c2.1,0,3.9-0.4,5.4-1.3c1.6-0.9,2.4-2.5,2.5-4.7c0-2.2-0.7-4-2-5.2
			c-1.3-1.2-2.9-1.9-4.8-1.9h-2.3c-0.2,0-0.4,0-0.6,0c-0.3,0.1-0.4,0.3-0.4,0.6v12.5H144.6z"/>
	</g>
	<g>
		<g>
			<path class="st1" d="M101.3,133.3c-0.5,1.4-1.1,3-1.7,4.7c-0.6,1.7-0.9,3-0.9,3.8c0,0.4,0.1,0.8,0.4,0.9c0.2,0.2,0.4,0.3,0.8,0.3
				h2.8v1.4h-9.1V143h0.9c0.4,0,0.7-0.1,1-0.2c0.3-0.1,0.5-0.3,0.6-0.5l11.4-27.9c1.3-0.4,2.2-0.6,2.7-0.6c0.3,0,0.4,0.2,0.4,0.5
				c0,0.2-0.1,0.4-0.4,0.6c-0.3,0.2-0.4,0.4-0.4,0.9c0,0.2,0.1,0.7,0.3,1.3c0.2,0.7,0.4,1.4,0.7,2.4c0.3,0.9,0.6,1.9,1,3
				c0.4,1.1,0.7,2.3,1.2,3.6c1.9,5.4,3.4,9.9,4.7,13.5c0.5,1.4,1,2.3,1.3,2.8c0.4,0.5,0.9,0.8,1.4,0.8h1.3v1.4h-10.2V143h2.5
				c0.4,0,0.6-0.2,0.7-0.5c0-0.2-0.3-1.1-0.9-2.7c-0.5-1.5-1.3-3.7-2.3-6.6H101.3z M106.9,119.2l-5,12.4h9L106.9,119.2z"/>
			<path class="st1" d="M144.1,136.4c0,2.3,0.1,4,0.2,5c0.1,1.1,0.5,1.6,1,1.5h2.5v1.4h-10.4v-1.4h2.1c0.4,0,0.7-0.2,0.7-0.8v-10.6
				c-4.6-8.5-7.4-13.4-8.5-14.8c-0.4-0.5-0.9-0.7-1.5-0.7h-1.6v-1.4h10.1v1.4h-2.1c-0.5,0-0.7,0.1-0.7,0.2c0,0.1,0.3,0.5,0.8,1.4
				c0.4,0.8,1,1.9,1.7,3.2c1.6,2.7,3.2,5.6,5,8.8c2.8-5.2,4.6-8.6,5.4-10.2c0.7-1.6,1.1-2.5,1-2.7c0-0.4-0.3-0.6-0.9-0.6h-2.6v-1.4
				h8.2v1.4H153c-0.3,0-0.6,0.2-0.8,0.4c-0.2,0.3-0.3,0.6-0.5,1l-7.6,14V136.4z"/>
			<path class="st1" d="M171.7,122.7c0-2.4-0.1-4.1-0.2-5.1c-0.2-1-0.5-1.5-1.1-1.5h-2.6v-1.4h22.6c-0.2,2-0.3,3.2-0.5,3.6
				c-0.1,0.5-0.3,0.7-0.5,0.7c-0.3,0-0.5-0.3-0.6-0.8c0-0.2,0-0.3-0.2-0.5c-0.2-0.2-0.6-0.4-1.1-0.6c-0.5-0.2-1.3-0.4-2.4-0.5
				c-1.1-0.1-2.5-0.1-4.3-0.1h-4.4c-0.6,0-0.9,0.3-0.9,0.8v10.2h5.2c1.2,0,2.2,0,3-0.1c0.8,0,1.4-0.1,1.8-0.2
				c0.8-0.2,1.2-0.6,1.2-1.3V124h1.2v7.9h-1.2v-1.6c0-0.3,0-0.6-0.1-0.8c-0.1-0.2-0.4-0.3-0.8-0.4c-0.7-0.1-2.2-0.1-4.7-0.1h-5.7
				v7.9c0,2.8,0.1,4.4,0.4,5c0.1,0.3,0.3,0.5,0.6,0.6c0.2,0.1,0.5,0.1,0.8,0.1h3c3.8,0,6.3-0.3,7.7-0.8c0.7-0.2,1.3-0.5,1.7-0.8
				c0.4-0.3,0.6-0.6,0.8-0.9c0.1-0.3,0.3-0.5,0.5-0.5c0.2,0,0.3,0.2,0.4,0.5c0,0.2-0.1,0.7-0.3,1.5c-0.2,0.8-0.5,1.7-0.8,2.6H169
				v-1.4l2.1,0c0.5,0,0.7-0.2,0.7-0.7V122.7z"/>
			<path class="st1" d="M210,122.7c0-2.4-0.1-4.1-0.2-5.1c-0.1-1-0.5-1.5-1.1-1.5h-2.7v-1.4h12.6c1,0,2.1,0.1,3.2,0.4
				c1,0.3,2,0.7,2.9,1.4c0.9,0.6,1.7,1.4,2.2,2.4c0.5,1.1,0.8,2.3,0.8,3.8c0,2.1-0.7,3.8-2,5c-1.3,1.3-3,2.1-5,2.5
				c3.6,5.4,6.1,8.9,7.5,10.5c0.7,0.8,1.3,1.4,1.7,1.7c0.4,0.3,0.8,0.5,1.1,0.5h1.1v1.4h-5.2c-0.2,0-0.5-0.1-0.8-0.3
				c-0.3-0.2-0.7-0.6-1.3-1.5c-1.1-1.4-3.7-5.3-7.7-11.7h-3.3v5.4c0,2.3,0.1,4,0.2,5c0.1,1.1,0.5,1.6,1,1.5h2.6v1.4h-10.4v-1.4h2.1
				c0.5,0,0.7-0.2,0.7-0.7V122.7z M216.1,129.6c2.1,0,3.9-0.4,5.4-1.3c1.6-0.9,2.4-2.5,2.5-4.7c0-2.2-0.7-4-2-5.2
				c-1.3-1.2-2.9-1.9-4.8-1.9h-2.3c-0.2,0-0.4,0-0.6,0c-0.3,0.1-0.4,0.3-0.4,0.6v12.5H216.1z"/>
			<path class="st1" d="M254.9,115.5c-1.5,0-2.9,0.5-4.1,1.4c-0.6,0.5-1.1,1-1.4,1.7c-0.4,0.7-0.6,1.4-0.6,2.3
				c0,0.9,0.2,1.7,0.6,2.3c0.4,0.7,0.8,1.2,1.4,1.7c0.6,0.5,1.3,0.9,2,1.2c0.7,0.3,1.4,0.7,2.1,0.9c2.9,1,5,2.2,6.4,3.5
				c1.4,1.3,2.1,3.2,2.1,5.6c0,2.1-0.9,4.1-2.6,6c-1.8,2-4.5,3-8.3,3.1c-2.4,0-4.8-0.5-7-1.3c-0.5-2.7-0.7-4.1-0.7-4.3
				c0-0.3,0.2-0.5,0.5-0.5c0.3,0,0.4,0.1,0.5,0.2c0.1,0.2,0.2,0.4,0.2,0.7c0.2,0.6,0.6,1.1,1.1,1.6c0.5,0.5,1.1,0.8,1.8,1.1
				c1.5,0.6,2.9,0.8,4,0.8c1.9,0,3.6-0.5,5.1-1.5c1.5-1,2.2-2.5,2.2-4.6c0-1.8-0.6-3.2-1.8-4.2c-1.2-1-3-1.9-5.2-2.7
				c-0.5-0.2-1.2-0.5-2-0.8c-0.8-0.4-1.7-0.9-2.5-1.4c-0.8-0.7-1.5-1.5-2.1-2.4c-0.6-1-0.9-2.1-0.9-3.5c0.1-2.8,1.1-4.9,3.3-6.4
				c2.1-1.4,4.3-2.1,6.8-2.1c1.9,0,3.6,0.3,5,0.9c0.1,1.1,0.1,2.2,0.1,3.4c0,0.4-0.2,0.6-0.5,0.6c-0.2,0-0.4-0.1-0.4-0.2
				c-0.1-0.1-0.2-0.3-0.2-0.4c0-0.3-0.1-0.5-0.2-0.7c-0.1-0.2-0.3-0.4-0.5-0.5c-0.4-0.3-0.9-0.6-1.5-0.7
				C256.8,115.7,255.8,115.5,254.9,115.5z"/>
		</g>
		<g>
			<path class="st1" d="M103.4,166.9c-1.5,0-2.9,0.5-4.1,1.4c-0.6,0.5-1.1,1-1.4,1.7c-0.4,0.7-0.6,1.4-0.6,2.3
				c0,0.9,0.2,1.7,0.6,2.3c0.4,0.7,0.8,1.2,1.4,1.7c0.6,0.5,1.3,0.9,2,1.2c0.7,0.3,1.4,0.7,2.1,0.9c2.9,1,5,2.2,6.4,3.5
				c1.4,1.3,2.1,3.2,2.1,5.6c0,2.1-0.9,4.1-2.6,6c-1.8,2-4.5,3-8.3,3.1c-2.4,0-4.8-0.5-7-1.3c-0.5-2.7-0.7-4.1-0.7-4.3
				c0-0.3,0.2-0.5,0.5-0.5c0.3,0,0.4,0.1,0.5,0.2c0.1,0.2,0.2,0.4,0.2,0.7c0.2,0.6,0.6,1.1,1.1,1.6c0.5,0.5,1.1,0.8,1.8,1.1
				c1.5,0.6,2.9,0.8,4,0.8c1.9,0,3.6-0.5,5.1-1.5c1.5-1,2.2-2.5,2.2-4.6c0-1.8-0.6-3.2-1.8-4.2c-1.2-1-3-1.9-5.2-2.7
				c-0.5-0.2-1.2-0.5-2-0.8c-0.8-0.4-1.7-0.9-2.5-1.4c-0.8-0.7-1.5-1.5-2.1-2.4c-0.6-1-0.9-2.1-0.9-3.5c0.1-2.8,1.2-4.9,3.3-6.4
				c2.1-1.4,4.3-2.1,6.8-2.1c1.9,0,3.6,0.3,5,0.9c0.1,1.1,0.1,2.2,0.1,3.4c0,0.4-0.2,0.6-0.5,0.6c-0.2,0-0.4-0.1-0.4-0.2
				c-0.1-0.1-0.2-0.3-0.2-0.4c0-0.3-0.1-0.5-0.2-0.7c-0.1-0.2-0.3-0.4-0.5-0.5c-0.4-0.3-0.9-0.6-1.5-0.7
				C105.3,167,104.2,166.9,103.4,166.9z"/>
			<path class="st1" d="M133.7,184.6c-0.5,1.4-1.1,3-1.7,4.7c-0.6,1.7-0.9,3-0.9,3.8c0,0.4,0.1,0.8,0.4,0.9c0.2,0.2,0.4,0.3,0.8,0.3
				h2.8v1.4h-9.1v-1.4h0.9c0.4,0,0.7-0.1,1-0.2c0.3-0.1,0.5-0.3,0.6-0.5l11.4-27.9c1.3-0.4,2.2-0.6,2.7-0.6c0.3,0,0.4,0.2,0.4,0.5
				c0,0.2-0.1,0.4-0.4,0.6c-0.3,0.2-0.4,0.4-0.4,0.9c0,0.2,0.1,0.7,0.3,1.3c0.2,0.7,0.4,1.4,0.7,2.4c0.3,0.9,0.6,1.9,1,3
				c0.4,1.1,0.7,2.3,1.2,3.6c1.9,5.4,3.4,9.9,4.7,13.5c0.5,1.4,1,2.3,1.3,2.8c0.4,0.5,0.9,0.8,1.4,0.8h1.3v1.4h-10.2v-1.4h2.5
				c0.4,0,0.6-0.2,0.7-0.5c0-0.2-0.3-1.1-0.9-2.7c-0.5-1.5-1.3-3.7-2.3-6.6H133.7z M139.3,170.5l-5,12.4h9L139.3,170.5z"/>
			<path class="st1" d="M176.7,187.7c0,2.4,0.1,4,0.2,5c0.1,1.1,0.5,1.6,1,1.5h2.6v1.4h-10.4v-1.4h2.1c0.5,0,0.7-0.2,0.7-0.8V174
				c0-2.4-0.1-4.1-0.2-5.1c-0.1-1-0.5-1.5-1.1-1.5H169v-1.4h10.4v1.4h-2c-0.5,0-0.7,0.3-0.7,0.8V187.7z"/>
		</g>
		<g>
			<path class="st1" d="M219.4,189.2L219.4,189.2l0.1-16.8c0-1.2-0.1-2.3-0.2-3.3c-0.2-1-0.6-1.6-1.3-1.6h-2.4v-1.4h8.2v1.4h-1.7
				c-0.7,0-1,0.3-1,0.9v27c0,0.5-0.1,0.7-0.4,0.7c-0.1,0-0.3-0.2-0.6-0.5l-0.6-0.7L200,170.6H200v18.8c0,1.1,0.1,2.2,0.2,3.2
				c0.1,1.1,0.6,1.7,1.2,1.7h2.4v1.4h-8.2v-1.4h1.7c0.7,0,1-0.3,1-0.9v-20.5c0-1.9-0.2-3.3-0.5-4.2c-0.3-0.8-1-1.2-2.1-1.2h-1.4
				v-1.4h6.5L219.4,189.2z"/>
			<path class="st1" d="M254.6,187.8c0,2.3,0.1,4,0.2,5c0.1,1.1,0.5,1.6,1.1,1.5h3.6v1.4h-13v-1.4h3.6c0.5,0,0.7-0.2,0.7-0.8v-25.8
				h-1.2c-2.7,0-4.8,0.2-6.2,0.7c-1.4,0.4-2.3,1-2.5,1.7c0,0.1-0.1,0.3-0.2,0.4c-0.1,0.2-0.3,0.2-0.4,0.2c-0.3,0-0.5-0.2-0.5-0.5
				c0-0.2,0.1-0.7,0.4-1.6c0.2-0.8,0.5-1.7,0.9-2.7h23.2c0.3,1,0.6,1.9,0.9,2.7c0.3,0.9,0.4,1.4,0.4,1.6c0,0.3-0.2,0.5-0.5,0.5
				c-0.2,0-0.3-0.1-0.4-0.2c-0.1-0.2-0.2-0.3-0.2-0.4c-0.2-0.7-1-1.3-2.4-1.7c-1.4-0.4-3.5-0.7-6.3-0.7h-1.2V187.8z"/>
		</g>
	</g>
	<path class="st1" d="M184.5,247c-4.5,0-8-1.4-10.4-4.2c-2.5-2.7-3.7-6.4-3.7-11c0-4.6,1.4-8.4,4.2-11.4c2.7-3.1,6.3-4.6,10.8-4.7
		c4.6,0,8.1,1.4,10.5,4.2c2.4,2.7,3.6,6.4,3.6,11c0,4.5-1.4,8.3-4.1,11.3C192.7,245.4,189.1,247,184.5,247z M184.4,217.3
		c-6.6,0.1-10,4.5-10.2,13.2c0.1,5.2,1.3,9,3.7,11.4c2.3,2.4,4.9,3.6,7.7,3.6c6.6-0.1,10-4.5,10.2-13.2c-0.1-5.2-1.3-9-3.7-11.4
		C189.7,218.4,187.2,217.3,184.4,217.3z"/>
	<path class="st1" d="M222.5,217.5c-1.5,0-2.9,0.5-4.1,1.4c-0.6,0.5-1.1,1-1.4,1.7c-0.4,0.7-0.6,1.4-0.6,2.3c0,0.9,0.2,1.7,0.6,2.3
		c0.4,0.7,0.8,1.2,1.4,1.7c0.6,0.5,1.3,0.9,2,1.2c0.7,0.3,1.4,0.7,2.1,0.9c2.9,1,5,2.2,6.4,3.5c1.4,1.3,2.1,3.2,2.1,5.6
		c0,2.1-0.9,4.1-2.6,6c-1.8,2-4.5,3-8.3,3.1c-2.4,0-4.8-0.5-7-1.3c-0.5-2.7-0.7-4.1-0.7-4.3c0-0.3,0.2-0.5,0.5-0.5
		c0.3,0,0.4,0.1,0.5,0.2c0.1,0.2,0.2,0.4,0.2,0.7c0.2,0.6,0.6,1.1,1.1,1.6c0.5,0.5,1.1,0.8,1.8,1.1c1.5,0.6,2.9,0.8,4,0.8
		c1.9,0,3.6-0.5,5.1-1.5c1.5-1,2.2-2.5,2.2-4.6c0-1.8-0.6-3.2-1.8-4.2c-1.2-1-3-1.9-5.2-2.7c-0.5-0.2-1.2-0.5-2-0.8
		c-0.8-0.4-1.7-0.9-2.5-1.4c-0.8-0.7-1.5-1.5-2.1-2.4c-0.6-1-0.9-2.1-0.9-3.5c0.1-2.8,1.2-4.9,3.3-6.4c2.1-1.4,4.3-2.1,6.8-2.1
		c1.9,0,3.6,0.3,5,0.9c0.1,1.1,0.1,2.2,0.1,3.4c0,0.4-0.2,0.6-0.5,0.6c-0.2,0-0.4-0.1-0.4-0.2c-0.1-0.1-0.2-0.3-0.2-0.4
		c0-0.3-0.1-0.5-0.2-0.7c-0.1-0.2-0.3-0.4-0.5-0.5c-0.4-0.3-0.9-0.6-1.5-0.7C224.4,217.6,223.4,217.5,222.5,217.5z"/>
	<path class="st1" d="M254.3,217.5c-1.5,0-2.9,0.5-4.1,1.4c-0.6,0.5-1.1,1-1.4,1.7c-0.4,0.7-0.6,1.4-0.6,2.3c0,0.9,0.2,1.7,0.6,2.3
		c0.4,0.7,0.8,1.2,1.4,1.7c0.6,0.5,1.3,0.9,2,1.2c0.7,0.3,1.4,0.7,2.1,0.9c2.9,1,5,2.2,6.4,3.5c1.4,1.3,2.1,3.2,2.1,5.6
		c0,2.1-0.9,4.1-2.6,6c-1.8,2-4.5,3-8.3,3.1c-2.4,0-4.8-0.5-7-1.3c-0.5-2.7-0.7-4.1-0.7-4.3c0-0.3,0.2-0.5,0.5-0.5
		c0.3,0,0.4,0.1,0.5,0.2c0.1,0.2,0.2,0.4,0.2,0.7c0.2,0.6,0.6,1.1,1.1,1.6c0.5,0.5,1.1,0.8,1.8,1.1c1.5,0.6,2.9,0.8,4,0.8
		c1.9,0,3.6-0.5,5.1-1.5c1.5-1,2.2-2.5,2.2-4.6c0-1.8-0.6-3.2-1.8-4.2c-1.2-1-3-1.9-5.2-2.7c-0.5-0.2-1.2-0.5-2-0.8
		c-0.8-0.4-1.7-0.9-2.5-1.4c-0.8-0.7-1.5-1.5-2.1-2.4c-0.6-1-0.9-2.1-0.9-3.5c0.1-2.8,1.2-4.9,3.3-6.4c2.1-1.4,4.3-2.1,6.8-2.1
		c1.9,0,3.6,0.3,5,0.9c0.1,1.1,0.1,2.2,0.1,3.4c0,0.4-0.2,0.6-0.5,0.6c-0.2,0-0.4-0.1-0.4-0.2c-0.1-0.1-0.2-0.3-0.2-0.4
		c0-0.3-0.1-0.5-0.2-0.7c-0.1-0.2-0.3-0.4-0.5-0.5c-0.4-0.3-0.9-0.6-1.5-0.7C256.1,217.6,255.1,217.5,254.3,217.5z"/>
</g>
<g>
	<g>
		<line class="st1" x1="97.2" y1="155.2" x2="264.2" y2="155.2"/>
		<polygon class="st1" points="97.2,155.8 97.2,154.7 264.2,154.7 264.2,155.8 97.2,155.8 		"/>
	</g>
	<g>
		<line class="st1" x1="97.2" y1="206.2" x2="264.2" y2="206.2"/>
		<polygon class="st1" points="97.2,206.8 97.2,205.7 264.2,205.7 264.2,206.8 97.2,206.8 		"/>
	</g>
</g>
</svg>
